<svg viewBox="0 0 89 89" xmlns="http://www.w3.org/2000/svg" xmlns:xlink="http://www.w3.org/1999/xlink" width="89.000000" height="89.000000" fill="none">
	<rect id="容器 1" width="89.000000" height="89.000000" x="0.000000" y="0.000000" />
	<path id="矢量 12" d="M0.439058 0L4.50109 4.68688L0 8.70237" stroke="rgb(0,0,0)" stroke-linecap="round" stroke-linejoin="round" stroke-width="2.000000" transform="matrix(0.965926,-0.258819,0.248125,0.968791,53.3407,48.6136)" />
	<path id="矢量 3" d="M0 0L1 70" stroke="rgb(0,0,0)" stroke-linecap="butt" stroke-dasharray="4 4 " stroke-width="2.000000" transform="matrix(0.999748,0.0224302,-0.0220052,0.999758,44,10)" />
	<path id="矢量 11" d="M58.5976 52.5944Q52.0882 55 44 55Q33.8228 55 26.5822 51.3797Q19 47.5886 19 42Q19 36.4114 26.5822 32.6203Q33.8228 29 44 29Q54.1772 29 61.4178 32.6203Q69 36.4114 69 42Q69 42.0985 68.9808 42.1951Q68.9616 42.2917 68.9239 42.3827Q68.8862 42.4737 68.8315 42.5556Q68.7767 42.6375 68.7071 42.7071Q68.6375 42.7767 68.5556 42.8315Q68.4737 42.8862 68.3827 42.9239Q68.2917 42.9616 68.1951 42.9808Q68.0985 43 68 43Q67.9015 43 67.8049 42.9808Q67.7083 42.9616 67.6173 42.9239Q67.5263 42.8862 67.4444 42.8315Q67.3625 42.7767 67.2929 42.7071Q67.2233 42.6375 67.1685 42.5556Q67.1138 42.4737 67.0761 42.3827Q67.0384 42.2917 67.0192 42.1951Q67 42.0985 67 42Q67 37.6475 60.5233 34.4091Q53.7051 31 44 31Q34.2949 31 27.4767 34.4091Q21 37.6475 21 42Q21 46.3525 27.4767 49.5909Q34.2949 53 44 53Q51.7305 53 57.9043 50.7184Q57.9967 50.6843 58.0939 50.6688Q58.1912 50.6533 58.2896 50.6572Q58.388 50.661 58.4838 50.6839Q58.5796 50.7068 58.6691 50.748Q58.7585 50.7892 58.8383 50.8471Q58.918 50.9049 58.9849 50.9772Q59.0518 51.0495 59.1033 51.1334Q59.1548 51.2174 59.1889 51.3098Q59.2231 51.4022 59.2385 51.4994Q59.254 51.5967 59.2502 51.6951Q59.2464 51.7935 59.2234 51.8893Q59.2005 51.9851 59.1593 52.0746Q59.1181 52.164 59.0603 52.2437Q59.0024 52.3234 58.9301 52.3903Q58.8579 52.4572 58.7739 52.5088Q58.69 52.5603 58.5976 52.5944ZM68.98 41.98L69 42C69 42.56 68.56 43 68 43C67.44 43 67 42.56 67 42L67.02 41.98L68.98 41.98ZM57.8925 50.7441L57.9043 50.7184C58.4296 50.5243 58.9948 50.7845 59.1889 51.3098C59.383 51.835 59.1229 52.4003 58.5976 52.5944L58.5719 52.5826L57.8925 50.7441Z" fill="rgb(0,0,0)" fill-rule="nonzero" />
</svg>
